<?xml version="1.0" standalone="no"?>
<svg xmlns="http://www.w3.org/2000/svg" version="1.1" width="377" height="377">
	<!-- Created with https://api.qrserver.com (QR Code API, see goQR.me/api for information) -->
	<title>QR Code</title>
	<desc>0xf7d4fCd2231769bAC10B74ED820DAe90758008da</desc>
	<rect style="fill:rgb(255, 255, 255);fill-opacity:1" x="0" y="0" width="377" height="377" />
	<g id="elements">
		<path style="fill:rgb(0, 0, 0)" d="M 0,0 l 13,0 0,13 -13,0 z M 13,0 l 13,0 0,13 -13,0 z M 26,0 l 13,0 0,13 -13,0 z M 39,0 l 13,0 0,13 -13,0 z M 52,0 l 13,0 0,13 -13,0 z M 65,0 l 13,0 0,13 -13,0 z M 78,0 l 13,0 0,13 -13,0 z M 117,0 l 13,0 0,13 -13,0 z M 182,0 l 13,0 0,13 -13,0 z M 195,0 l 13,0 0,13 -13,0 z M 221,0 l 13,0 0,13 -13,0 z M 286,0 l 13,0 0,13 -13,0 z M 299,0 l 13,0 0,13 -13,0 z M 312,0 l 13,0 0,13 -13,0 z M 325,0 l 13,0 0,13 -13,0 z M 338,0 l 13,0 0,13 -13,0 z M 351,0 l 13,0 0,13 -13,0 z M 364,0 l 13,0 0,13 -13,0 z M 0,13 l 13,0 0,13 -13,0 z M 78,13 l 13,0 0,13 -13,0 z M 104,13 l 13,0 0,13 -13,0 z M 117,13 l 13,0 0,13 -13,0 z M 143,13 l 13,0 0,13 -13,0 z M 156,13 l 13,0 0,13 -13,0 z M 169,13 l 13,0 0,13 -13,0 z M 195,13 l 13,0 0,13 -13,0 z M 234,13 l 13,0 0,13 -13,0 z M 286,13 l 13,0 0,13 -13,0 z M 364,13 l 13,0 0,13 -13,0 z M 0,26 l 13,0 0,13 -13,0 z M 26,26 l 13,0 0,13 -13,0 z M 39,26 l 13,0 0,13 -13,0 z M 52,26 l 13,0 0,13 -13,0 z M 78,26 l 13,0 0,13 -13,0 z M 117,26 l 13,0 0,13 -13,0 z M 130,26 l 13,0 0,13 -13,0 z M 143,26 l 13,0 0,13 -13,0 z M 182,26 l 13,0 0,13 -13,0 z M 195,26 l 13,0 0,13 -13,0 z M 234,26 l 13,0 0,13 -13,0 z M 247,26 l 13,0 0,13 -13,0 z M 260,26 l 13,0 0,13 -13,0 z M 286,26 l 13,0 0,13 -13,0 z M 312,26 l 13,0 0,13 -13,0 z M 325,26 l 13,0 0,13 -13,0 z M 338,26 l 13,0 0,13 -13,0 z M 364,26 l 13,0 0,13 -13,0 z M 0,39 l 13,0 0,13 -13,0 z M 26,39 l 13,0 0,13 -13,0 z M 39,39 l 13,0 0,13 -13,0 z M 52,39 l 13,0 0,13 -13,0 z M 78,39 l 13,0 0,13 -13,0 z M 104,39 l 13,0 0,13 -13,0 z M 117,39 l 13,0 0,13 -13,0 z M 143,39 l 13,0 0,13 -13,0 z M 169,39 l 13,0 0,13 -13,0 z M 195,39 l 13,0 0,13 -13,0 z M 260,39 l 13,0 0,13 -13,0 z M 286,39 l 13,0 0,13 -13,0 z M 312,39 l 13,0 0,13 -13,0 z M 325,39 l 13,0 0,13 -13,0 z M 338,39 l 13,0 0,13 -13,0 z M 364,39 l 13,0 0,13 -13,0 z M 0,52 l 13,0 0,13 -13,0 z M 26,52 l 13,0 0,13 -13,0 z M 39,52 l 13,0 0,13 -13,0 z M 52,52 l 13,0 0,13 -13,0 z M 78,52 l 13,0 0,13 -13,0 z M 130,52 l 13,0 0,13 -13,0 z M 156,52 l 13,0 0,13 -13,0 z M 221,52 l 13,0 0,13 -13,0 z M 234,52 l 13,0 0,13 -13,0 z M 247,52 l 13,0 0,13 -13,0 z M 260,52 l 13,0 0,13 -13,0 z M 286,52 l 13,0 0,13 -13,0 z M 312,52 l 13,0 0,13 -13,0 z M 325,52 l 13,0 0,13 -13,0 z M 338,52 l 13,0 0,13 -13,0 z M 364,52 l 13,0 0,13 -13,0 z M 0,65 l 13,0 0,13 -13,0 z M 78,65 l 13,0 0,13 -13,0 z M 104,65 l 13,0 0,13 -13,0 z M 130,65 l 13,0 0,13 -13,0 z M 169,65 l 13,0 0,13 -13,0 z M 195,65 l 13,0 0,13 -13,0 z M 234,65 l 13,0 0,13 -13,0 z M 247,65 l 13,0 0,13 -13,0 z M 260,65 l 13,0 0,13 -13,0 z M 286,65 l 13,0 0,13 -13,0 z M 364,65 l 13,0 0,13 -13,0 z M 0,78 l 13,0 0,13 -13,0 z M 13,78 l 13,0 0,13 -13,0 z M 26,78 l 13,0 0,13 -13,0 z M 39,78 l 13,0 0,13 -13,0 z M 52,78 l 13,0 0,13 -13,0 z M 65,78 l 13,0 0,13 -13,0 z M 78,78 l 13,0 0,13 -13,0 z M 104,78 l 13,0 0,13 -13,0 z M 130,78 l 13,0 0,13 -13,0 z M 156,78 l 13,0 0,13 -13,0 z M 182,78 l 13,0 0,13 -13,0 z M 208,78 l 13,0 0,13 -13,0 z M 234,78 l 13,0 0,13 -13,0 z M 260,78 l 13,0 0,13 -13,0 z M 286,78 l 13,0 0,13 -13,0 z M 299,78 l 13,0 0,13 -13,0 z M 312,78 l 13,0 0,13 -13,0 z M 325,78 l 13,0 0,13 -13,0 z M 338,78 l 13,0 0,13 -13,0 z M 351,78 l 13,0 0,13 -13,0 z M 364,78 l 13,0 0,13 -13,0 z M 156,91 l 13,0 0,13 -13,0 z M 182,91 l 13,0 0,13 -13,0 z M 195,91 l 13,0 0,13 -13,0 z M 208,91 l 13,0 0,13 -13,0 z M 0,104 l 13,0 0,13 -13,0 z M 13,104 l 13,0 0,13 -13,0 z M 26,104 l 13,0 0,13 -13,0 z M 39,104 l 13,0 0,13 -13,0 z M 52,104 l 13,0 0,13 -13,0 z M 78,104 l 13,0 0,13 -13,0 z M 91,104 l 13,0 0,13 -13,0 z M 104,104 l 13,0 0,13 -13,0 z M 117,104 l 13,0 0,13 -13,0 z M 130,104 l 13,0 0,13 -13,0 z M 156,104 l 13,0 0,13 -13,0 z M 195,104 l 13,0 0,13 -13,0 z M 247,104 l 13,0 0,13 -13,0 z M 273,104 l 13,0 0,13 -13,0 z M 299,104 l 13,0 0,13 -13,0 z M 325,104 l 13,0 0,13 -13,0 z M 351,104 l 13,0 0,13 -13,0 z M 13,117 l 13,0 0,13 -13,0 z M 117,117 l 13,0 0,13 -13,0 z M 169,117 l 13,0 0,13 -13,0 z M 195,117 l 13,0 0,13 -13,0 z M 234,117 l 13,0 0,13 -13,0 z M 247,117 l 13,0 0,13 -13,0 z M 260,117 l 13,0 0,13 -13,0 z M 273,117 l 13,0 0,13 -13,0 z M 286,117 l 13,0 0,13 -13,0 z M 312,117 l 13,0 0,13 -13,0 z M 325,117 l 13,0 0,13 -13,0 z M 364,117 l 13,0 0,13 -13,0 z M 0,130 l 13,0 0,13 -13,0 z M 13,130 l 13,0 0,13 -13,0 z M 52,130 l 13,0 0,13 -13,0 z M 65,130 l 13,0 0,13 -13,0 z M 78,130 l 13,0 0,13 -13,0 z M 91,130 l 13,0 0,13 -13,0 z M 117,130 l 13,0 0,13 -13,0 z M 143,130 l 13,0 0,13 -13,0 z M 156,130 l 13,0 0,13 -13,0 z M 195,130 l 13,0 0,13 -13,0 z M 208,130 l 13,0 0,13 -13,0 z M 260,130 l 13,0 0,13 -13,0 z M 286,130 l 13,0 0,13 -13,0 z M 299,130 l 13,0 0,13 -13,0 z M 325,130 l 13,0 0,13 -13,0 z M 338,130 l 13,0 0,13 -13,0 z M 351,130 l 13,0 0,13 -13,0 z M 13,143 l 13,0 0,13 -13,0 z M 26,143 l 13,0 0,13 -13,0 z M 39,143 l 13,0 0,13 -13,0 z M 65,143 l 13,0 0,13 -13,0 z M 91,143 l 13,0 0,13 -13,0 z M 117,143 l 13,0 0,13 -13,0 z M 130,143 l 13,0 0,13 -13,0 z M 143,143 l 13,0 0,13 -13,0 z M 195,143 l 13,0 0,13 -13,0 z M 234,143 l 13,0 0,13 -13,0 z M 273,143 l 13,0 0,13 -13,0 z M 299,143 l 13,0 0,13 -13,0 z M 325,143 l 13,0 0,13 -13,0 z M 351,143 l 13,0 0,13 -13,0 z M 364,143 l 13,0 0,13 -13,0 z M 26,156 l 13,0 0,13 -13,0 z M 39,156 l 13,0 0,13 -13,0 z M 78,156 l 13,0 0,13 -13,0 z M 104,156 l 13,0 0,13 -13,0 z M 117,156 l 13,0 0,13 -13,0 z M 143,156 l 13,0 0,13 -13,0 z M 195,156 l 13,0 0,13 -13,0 z M 208,156 l 13,0 0,13 -13,0 z M 221,156 l 13,0 0,13 -13,0 z M 234,156 l 13,0 0,13 -13,0 z M 273,156 l 13,0 0,13 -13,0 z M 299,156 l 13,0 0,13 -13,0 z M 312,156 l 13,0 0,13 -13,0 z M 338,156 l 13,0 0,13 -13,0 z M 0,169 l 13,0 0,13 -13,0 z M 13,169 l 13,0 0,13 -13,0 z M 117,169 l 13,0 0,13 -13,0 z M 130,169 l 13,0 0,13 -13,0 z M 156,169 l 13,0 0,13 -13,0 z M 169,169 l 13,0 0,13 -13,0 z M 195,169 l 13,0 0,13 -13,0 z M 221,169 l 13,0 0,13 -13,0 z M 234,169 l 13,0 0,13 -13,0 z M 273,169 l 13,0 0,13 -13,0 z M 286,169 l 13,0 0,13 -13,0 z M 299,169 l 13,0 0,13 -13,0 z M 325,169 l 13,0 0,13 -13,0 z M 351,169 l 13,0 0,13 -13,0 z M 364,169 l 13,0 0,13 -13,0 z M 26,182 l 13,0 0,13 -13,0 z M 78,182 l 13,0 0,13 -13,0 z M 91,182 l 13,0 0,13 -13,0 z M 130,182 l 13,0 0,13 -13,0 z M 169,182 l 13,0 0,13 -13,0 z M 182,182 l 13,0 0,13 -13,0 z M 208,182 l 13,0 0,13 -13,0 z M 247,182 l 13,0 0,13 -13,0 z M 260,182 l 13,0 0,13 -13,0 z M 312,182 l 13,0 0,13 -13,0 z M 0,195 l 13,0 0,13 -13,0 z M 13,195 l 13,0 0,13 -13,0 z M 39,195 l 13,0 0,13 -13,0 z M 91,195 l 13,0 0,13 -13,0 z M 104,195 l 13,0 0,13 -13,0 z M 156,195 l 13,0 0,13 -13,0 z M 169,195 l 13,0 0,13 -13,0 z M 247,195 l 13,0 0,13 -13,0 z M 299,195 l 13,0 0,13 -13,0 z M 351,195 l 13,0 0,13 -13,0 z M 13,208 l 13,0 0,13 -13,0 z M 26,208 l 13,0 0,13 -13,0 z M 39,208 l 13,0 0,13 -13,0 z M 52,208 l 13,0 0,13 -13,0 z M 78,208 l 13,0 0,13 -13,0 z M 117,208 l 13,0 0,13 -13,0 z M 130,208 l 13,0 0,13 -13,0 z M 156,208 l 13,0 0,13 -13,0 z M 182,208 l 13,0 0,13 -13,0 z M 221,208 l 13,0 0,13 -13,0 z M 234,208 l 13,0 0,13 -13,0 z M 260,208 l 13,0 0,13 -13,0 z M 273,208 l 13,0 0,13 -13,0 z M 299,208 l 13,0 0,13 -13,0 z M 312,208 l 13,0 0,13 -13,0 z M 325,208 l 13,0 0,13 -13,0 z M 338,208 l 13,0 0,13 -13,0 z M 351,208 l 13,0 0,13 -13,0 z M 364,208 l 13,0 0,13 -13,0 z M 0,221 l 13,0 0,13 -13,0 z M 39,221 l 13,0 0,13 -13,0 z M 65,221 l 13,0 0,13 -13,0 z M 117,221 l 13,0 0,13 -13,0 z M 195,221 l 13,0 0,13 -13,0 z M 234,221 l 13,0 0,13 -13,0 z M 247,221 l 13,0 0,13 -13,0 z M 260,221 l 13,0 0,13 -13,0 z M 273,221 l 13,0 0,13 -13,0 z M 312,221 l 13,0 0,13 -13,0 z M 325,221 l 13,0 0,13 -13,0 z M 364,221 l 13,0 0,13 -13,0 z M 0,234 l 13,0 0,13 -13,0 z M 26,234 l 13,0 0,13 -13,0 z M 39,234 l 13,0 0,13 -13,0 z M 52,234 l 13,0 0,13 -13,0 z M 65,234 l 13,0 0,13 -13,0 z M 78,234 l 13,0 0,13 -13,0 z M 104,234 l 13,0 0,13 -13,0 z M 143,234 l 13,0 0,13 -13,0 z M 156,234 l 13,0 0,13 -13,0 z M 208,234 l 13,0 0,13 -13,0 z M 273,234 l 13,0 0,13 -13,0 z M 312,234 l 13,0 0,13 -13,0 z M 0,247 l 13,0 0,13 -13,0 z M 26,247 l 13,0 0,13 -13,0 z M 117,247 l 13,0 0,13 -13,0 z M 130,247 l 13,0 0,13 -13,0 z M 143,247 l 13,0 0,13 -13,0 z M 182,247 l 13,0 0,13 -13,0 z M 260,247 l 13,0 0,13 -13,0 z M 273,247 l 13,0 0,13 -13,0 z M 312,247 l 13,0 0,13 -13,0 z M 325,247 l 13,0 0,13 -13,0 z M 351,247 l 13,0 0,13 -13,0 z M 0,260 l 13,0 0,13 -13,0 z M 39,260 l 13,0 0,13 -13,0 z M 65,260 l 13,0 0,13 -13,0 z M 78,260 l 13,0 0,13 -13,0 z M 91,260 l 13,0 0,13 -13,0 z M 104,260 l 13,0 0,13 -13,0 z M 130,260 l 13,0 0,13 -13,0 z M 143,260 l 13,0 0,13 -13,0 z M 195,260 l 13,0 0,13 -13,0 z M 221,260 l 13,0 0,13 -13,0 z M 234,260 l 13,0 0,13 -13,0 z M 247,260 l 13,0 0,13 -13,0 z M 260,260 l 13,0 0,13 -13,0 z M 273,260 l 13,0 0,13 -13,0 z M 286,260 l 13,0 0,13 -13,0 z M 299,260 l 13,0 0,13 -13,0 z M 312,260 l 13,0 0,13 -13,0 z M 338,260 l 13,0 0,13 -13,0 z M 351,260 l 13,0 0,13 -13,0 z M 104,273 l 13,0 0,13 -13,0 z M 117,273 l 13,0 0,13 -13,0 z M 156,273 l 13,0 0,13 -13,0 z M 169,273 l 13,0 0,13 -13,0 z M 182,273 l 13,0 0,13 -13,0 z M 247,273 l 13,0 0,13 -13,0 z M 260,273 l 13,0 0,13 -13,0 z M 312,273 l 13,0 0,13 -13,0 z M 325,273 l 13,0 0,13 -13,0 z M 364,273 l 13,0 0,13 -13,0 z M 0,286 l 13,0 0,13 -13,0 z M 13,286 l 13,0 0,13 -13,0 z M 26,286 l 13,0 0,13 -13,0 z M 39,286 l 13,0 0,13 -13,0 z M 52,286 l 13,0 0,13 -13,0 z M 65,286 l 13,0 0,13 -13,0 z M 78,286 l 13,0 0,13 -13,0 z M 104,286 l 13,0 0,13 -13,0 z M 169,286 l 13,0 0,13 -13,0 z M 182,286 l 13,0 0,13 -13,0 z M 195,286 l 13,0 0,13 -13,0 z M 260,286 l 13,0 0,13 -13,0 z M 286,286 l 13,0 0,13 -13,0 z M 312,286 l 13,0 0,13 -13,0 z M 338,286 l 13,0 0,13 -13,0 z M 351,286 l 13,0 0,13 -13,0 z M 0,299 l 13,0 0,13 -13,0 z M 78,299 l 13,0 0,13 -13,0 z M 117,299 l 13,0 0,13 -13,0 z M 130,299 l 13,0 0,13 -13,0 z M 156,299 l 13,0 0,13 -13,0 z M 169,299 l 13,0 0,13 -13,0 z M 195,299 l 13,0 0,13 -13,0 z M 234,299 l 13,0 0,13 -13,0 z M 260,299 l 13,0 0,13 -13,0 z M 312,299 l 13,0 0,13 -13,0 z M 325,299 l 13,0 0,13 -13,0 z M 0,312 l 13,0 0,13 -13,0 z M 26,312 l 13,0 0,13 -13,0 z M 39,312 l 13,0 0,13 -13,0 z M 52,312 l 13,0 0,13 -13,0 z M 78,312 l 13,0 0,13 -13,0 z M 104,312 l 13,0 0,13 -13,0 z M 117,312 l 13,0 0,13 -13,0 z M 156,312 l 13,0 0,13 -13,0 z M 182,312 l 13,0 0,13 -13,0 z M 195,312 l 13,0 0,13 -13,0 z M 208,312 l 13,0 0,13 -13,0 z M 234,312 l 13,0 0,13 -13,0 z M 260,312 l 13,0 0,13 -13,0 z M 273,312 l 13,0 0,13 -13,0 z M 286,312 l 13,0 0,13 -13,0 z M 299,312 l 13,0 0,13 -13,0 z M 312,312 l 13,0 0,13 -13,0 z M 351,312 l 13,0 0,13 -13,0 z M 364,312 l 13,0 0,13 -13,0 z M 0,325 l 13,0 0,13 -13,0 z M 26,325 l 13,0 0,13 -13,0 z M 39,325 l 13,0 0,13 -13,0 z M 52,325 l 13,0 0,13 -13,0 z M 78,325 l 13,0 0,13 -13,0 z M 104,325 l 13,0 0,13 -13,0 z M 195,325 l 13,0 0,13 -13,0 z M 234,325 l 13,0 0,13 -13,0 z M 299,325 l 13,0 0,13 -13,0 z M 312,325 l 13,0 0,13 -13,0 z M 351,325 l 13,0 0,13 -13,0 z M 0,338 l 13,0 0,13 -13,0 z M 26,338 l 13,0 0,13 -13,0 z M 39,338 l 13,0 0,13 -13,0 z M 52,338 l 13,0 0,13 -13,0 z M 78,338 l 13,0 0,13 -13,0 z M 104,338 l 13,0 0,13 -13,0 z M 117,338 l 13,0 0,13 -13,0 z M 143,338 l 13,0 0,13 -13,0 z M 156,338 l 13,0 0,13 -13,0 z M 195,338 l 13,0 0,13 -13,0 z M 208,338 l 13,0 0,13 -13,0 z M 234,338 l 13,0 0,13 -13,0 z M 260,338 l 13,0 0,13 -13,0 z M 312,338 l 13,0 0,13 -13,0 z M 325,338 l 13,0 0,13 -13,0 z M 338,338 l 13,0 0,13 -13,0 z M 351,338 l 13,0 0,13 -13,0 z M 0,351 l 13,0 0,13 -13,0 z M 78,351 l 13,0 0,13 -13,0 z M 104,351 l 13,0 0,13 -13,0 z M 130,351 l 13,0 0,13 -13,0 z M 143,351 l 13,0 0,13 -13,0 z M 182,351 l 13,0 0,13 -13,0 z M 195,351 l 13,0 0,13 -13,0 z M 208,351 l 13,0 0,13 -13,0 z M 273,351 l 13,0 0,13 -13,0 z M 286,351 l 13,0 0,13 -13,0 z M 312,351 l 13,0 0,13 -13,0 z M 325,351 l 13,0 0,13 -13,0 z M 351,351 l 13,0 0,13 -13,0 z M 0,364 l 13,0 0,13 -13,0 z M 13,364 l 13,0 0,13 -13,0 z M 26,364 l 13,0 0,13 -13,0 z M 39,364 l 13,0 0,13 -13,0 z M 52,364 l 13,0 0,13 -13,0 z M 65,364 l 13,0 0,13 -13,0 z M 78,364 l 13,0 0,13 -13,0 z M 104,364 l 13,0 0,13 -13,0 z M 117,364 l 13,0 0,13 -13,0 z M 130,364 l 13,0 0,13 -13,0 z M 143,364 l 13,0 0,13 -13,0 z M 195,364 l 13,0 0,13 -13,0 z M 221,364 l 13,0 0,13 -13,0 z M 260,364 l 13,0 0,13 -13,0 z M 273,364 l 13,0 0,13 -13,0 z M 299,364 l 13,0 0,13 -13,0 z M 312,364 l 13,0 0,13 -13,0 z M 338,364 l 13,0 0,13 -13,0 z " />
	</g>
</svg>
