<?xml version="1.0" standalone="no"?>
<svg xmlns="http://www.w3.org/2000/svg" version="1.1" width="377" height="377">
	<!-- Created with https://api.qrserver.com (QR Code API, see goQR.me/api for information) -->
	<title>QR Code</title>
	<desc>bc1qv3uev36l3uqveg0xkqcty3vy4c90vdgwq7dkzz</desc>
	<rect style="fill:rgb(255, 255, 255);fill-opacity:1" x="0" y="0" width="377" height="377" />
	<g id="elements">
		<path style="fill:rgb(0, 0, 0)" d="M 0,0 l 13,0 0,13 -13,0 z M 13,0 l 13,0 0,13 -13,0 z M 26,0 l 13,0 0,13 -13,0 z M 39,0 l 13,0 0,13 -13,0 z M 52,0 l 13,0 0,13 -13,0 z M 65,0 l 13,0 0,13 -13,0 z M 78,0 l 13,0 0,13 -13,0 z M 130,0 l 13,0 0,13 -13,0 z M 156,0 l 13,0 0,13 -13,0 z M 182,0 l 13,0 0,13 -13,0 z M 208,0 l 13,0 0,13 -13,0 z M 234,0 l 13,0 0,13 -13,0 z M 247,0 l 13,0 0,13 -13,0 z M 260,0 l 13,0 0,13 -13,0 z M 286,0 l 13,0 0,13 -13,0 z M 299,0 l 13,0 0,13 -13,0 z M 312,0 l 13,0 0,13 -13,0 z M 325,0 l 13,0 0,13 -13,0 z M 338,0 l 13,0 0,13 -13,0 z M 351,0 l 13,0 0,13 -13,0 z M 364,0 l 13,0 0,13 -13,0 z M 0,13 l 13,0 0,13 -13,0 z M 78,13 l 13,0 0,13 -13,0 z M 104,13 l 13,0 0,13 -13,0 z M 130,13 l 13,0 0,13 -13,0 z M 195,13 l 13,0 0,13 -13,0 z M 208,13 l 13,0 0,13 -13,0 z M 221,13 l 13,0 0,13 -13,0 z M 234,13 l 13,0 0,13 -13,0 z M 260,13 l 13,0 0,13 -13,0 z M 286,13 l 13,0 0,13 -13,0 z M 364,13 l 13,0 0,13 -13,0 z M 0,26 l 13,0 0,13 -13,0 z M 26,26 l 13,0 0,13 -13,0 z M 39,26 l 13,0 0,13 -13,0 z M 52,26 l 13,0 0,13 -13,0 z M 78,26 l 13,0 0,13 -13,0 z M 156,26 l 13,0 0,13 -13,0 z M 182,26 l 13,0 0,13 -13,0 z M 208,26 l 13,0 0,13 -13,0 z M 286,26 l 13,0 0,13 -13,0 z M 312,26 l 13,0 0,13 -13,0 z M 325,26 l 13,0 0,13 -13,0 z M 338,26 l 13,0 0,13 -13,0 z M 364,26 l 13,0 0,13 -13,0 z M 0,39 l 13,0 0,13 -13,0 z M 26,39 l 13,0 0,13 -13,0 z M 39,39 l 13,0 0,13 -13,0 z M 52,39 l 13,0 0,13 -13,0 z M 78,39 l 13,0 0,13 -13,0 z M 104,39 l 13,0 0,13 -13,0 z M 117,39 l 13,0 0,13 -13,0 z M 130,39 l 13,0 0,13 -13,0 z M 156,39 l 13,0 0,13 -13,0 z M 169,39 l 13,0 0,13 -13,0 z M 195,39 l 13,0 0,13 -13,0 z M 208,39 l 13,0 0,13 -13,0 z M 221,39 l 13,0 0,13 -13,0 z M 260,39 l 13,0 0,13 -13,0 z M 286,39 l 13,0 0,13 -13,0 z M 312,39 l 13,0 0,13 -13,0 z M 325,39 l 13,0 0,13 -13,0 z M 338,39 l 13,0 0,13 -13,0 z M 364,39 l 13,0 0,13 -13,0 z M 0,52 l 13,0 0,13 -13,0 z M 26,52 l 13,0 0,13 -13,0 z M 39,52 l 13,0 0,13 -13,0 z M 52,52 l 13,0 0,13 -13,0 z M 78,52 l 13,0 0,13 -13,0 z M 117,52 l 13,0 0,13 -13,0 z M 182,52 l 13,0 0,13 -13,0 z M 208,52 l 13,0 0,13 -13,0 z M 247,52 l 13,0 0,13 -13,0 z M 260,52 l 13,0 0,13 -13,0 z M 286,52 l 13,0 0,13 -13,0 z M 312,52 l 13,0 0,13 -13,0 z M 325,52 l 13,0 0,13 -13,0 z M 338,52 l 13,0 0,13 -13,0 z M 364,52 l 13,0 0,13 -13,0 z M 0,65 l 13,0 0,13 -13,0 z M 78,65 l 13,0 0,13 -13,0 z M 104,65 l 13,0 0,13 -13,0 z M 117,65 l 13,0 0,13 -13,0 z M 143,65 l 13,0 0,13 -13,0 z M 156,65 l 13,0 0,13 -13,0 z M 169,65 l 13,0 0,13 -13,0 z M 182,65 l 13,0 0,13 -13,0 z M 195,65 l 13,0 0,13 -13,0 z M 208,65 l 13,0 0,13 -13,0 z M 260,65 l 13,0 0,13 -13,0 z M 286,65 l 13,0 0,13 -13,0 z M 364,65 l 13,0 0,13 -13,0 z M 0,78 l 13,0 0,13 -13,0 z M 13,78 l 13,0 0,13 -13,0 z M 26,78 l 13,0 0,13 -13,0 z M 39,78 l 13,0 0,13 -13,0 z M 52,78 l 13,0 0,13 -13,0 z M 65,78 l 13,0 0,13 -13,0 z M 78,78 l 13,0 0,13 -13,0 z M 104,78 l 13,0 0,13 -13,0 z M 130,78 l 13,0 0,13 -13,0 z M 156,78 l 13,0 0,13 -13,0 z M 182,78 l 13,0 0,13 -13,0 z M 208,78 l 13,0 0,13 -13,0 z M 234,78 l 13,0 0,13 -13,0 z M 260,78 l 13,0 0,13 -13,0 z M 286,78 l 13,0 0,13 -13,0 z M 299,78 l 13,0 0,13 -13,0 z M 312,78 l 13,0 0,13 -13,0 z M 325,78 l 13,0 0,13 -13,0 z M 338,78 l 13,0 0,13 -13,0 z M 351,78 l 13,0 0,13 -13,0 z M 364,78 l 13,0 0,13 -13,0 z M 117,91 l 13,0 0,13 -13,0 z M 130,91 l 13,0 0,13 -13,0 z M 143,91 l 13,0 0,13 -13,0 z M 182,91 l 13,0 0,13 -13,0 z M 208,91 l 13,0 0,13 -13,0 z M 234,91 l 13,0 0,13 -13,0 z M 247,91 l 13,0 0,13 -13,0 z M 0,104 l 13,0 0,13 -13,0 z M 13,104 l 13,0 0,13 -13,0 z M 26,104 l 13,0 0,13 -13,0 z M 39,104 l 13,0 0,13 -13,0 z M 52,104 l 13,0 0,13 -13,0 z M 78,104 l 13,0 0,13 -13,0 z M 91,104 l 13,0 0,13 -13,0 z M 104,104 l 13,0 0,13 -13,0 z M 117,104 l 13,0 0,13 -13,0 z M 143,104 l 13,0 0,13 -13,0 z M 169,104 l 13,0 0,13 -13,0 z M 182,104 l 13,0 0,13 -13,0 z M 195,104 l 13,0 0,13 -13,0 z M 221,104 l 13,0 0,13 -13,0 z M 247,104 l 13,0 0,13 -13,0 z M 273,104 l 13,0 0,13 -13,0 z M 299,104 l 13,0 0,13 -13,0 z M 325,104 l 13,0 0,13 -13,0 z M 351,104 l 13,0 0,13 -13,0 z M 0,117 l 13,0 0,13 -13,0 z M 52,117 l 13,0 0,13 -13,0 z M 65,117 l 13,0 0,13 -13,0 z M 91,117 l 13,0 0,13 -13,0 z M 130,117 l 13,0 0,13 -13,0 z M 156,117 l 13,0 0,13 -13,0 z M 208,117 l 13,0 0,13 -13,0 z M 221,117 l 13,0 0,13 -13,0 z M 247,117 l 13,0 0,13 -13,0 z M 260,117 l 13,0 0,13 -13,0 z M 286,117 l 13,0 0,13 -13,0 z M 312,117 l 13,0 0,13 -13,0 z M 364,117 l 13,0 0,13 -13,0 z M 39,130 l 13,0 0,13 -13,0 z M 52,130 l 13,0 0,13 -13,0 z M 65,130 l 13,0 0,13 -13,0 z M 78,130 l 13,0 0,13 -13,0 z M 91,130 l 13,0 0,13 -13,0 z M 130,130 l 13,0 0,13 -13,0 z M 182,130 l 13,0 0,13 -13,0 z M 195,130 l 13,0 0,13 -13,0 z M 234,130 l 13,0 0,13 -13,0 z M 273,130 l 13,0 0,13 -13,0 z M 312,130 l 13,0 0,13 -13,0 z M 325,130 l 13,0 0,13 -13,0 z M 0,143 l 13,0 0,13 -13,0 z M 26,143 l 13,0 0,13 -13,0 z M 104,143 l 13,0 0,13 -13,0 z M 156,143 l 13,0 0,13 -13,0 z M 195,143 l 13,0 0,13 -13,0 z M 208,143 l 13,0 0,13 -13,0 z M 286,143 l 13,0 0,13 -13,0 z M 299,143 l 13,0 0,13 -13,0 z M 325,143 l 13,0 0,13 -13,0 z M 0,156 l 13,0 0,13 -13,0 z M 26,156 l 13,0 0,13 -13,0 z M 52,156 l 13,0 0,13 -13,0 z M 65,156 l 13,0 0,13 -13,0 z M 78,156 l 13,0 0,13 -13,0 z M 117,156 l 13,0 0,13 -13,0 z M 130,156 l 13,0 0,13 -13,0 z M 156,156 l 13,0 0,13 -13,0 z M 169,156 l 13,0 0,13 -13,0 z M 182,156 l 13,0 0,13 -13,0 z M 195,156 l 13,0 0,13 -13,0 z M 221,156 l 13,0 0,13 -13,0 z M 234,156 l 13,0 0,13 -13,0 z M 247,156 l 13,0 0,13 -13,0 z M 260,156 l 13,0 0,13 -13,0 z M 325,156 l 13,0 0,13 -13,0 z M 338,156 l 13,0 0,13 -13,0 z M 351,156 l 13,0 0,13 -13,0 z M 0,169 l 13,0 0,13 -13,0 z M 13,169 l 13,0 0,13 -13,0 z M 26,169 l 13,0 0,13 -13,0 z M 39,169 l 13,0 0,13 -13,0 z M 104,169 l 13,0 0,13 -13,0 z M 169,169 l 13,0 0,13 -13,0 z M 208,169 l 13,0 0,13 -13,0 z M 247,169 l 13,0 0,13 -13,0 z M 260,169 l 13,0 0,13 -13,0 z M 286,169 l 13,0 0,13 -13,0 z M 299,169 l 13,0 0,13 -13,0 z M 312,169 l 13,0 0,13 -13,0 z M 325,169 l 13,0 0,13 -13,0 z M 364,169 l 13,0 0,13 -13,0 z M 0,182 l 13,0 0,13 -13,0 z M 13,182 l 13,0 0,13 -13,0 z M 26,182 l 13,0 0,13 -13,0 z M 52,182 l 13,0 0,13 -13,0 z M 65,182 l 13,0 0,13 -13,0 z M 78,182 l 13,0 0,13 -13,0 z M 104,182 l 13,0 0,13 -13,0 z M 143,182 l 13,0 0,13 -13,0 z M 156,182 l 13,0 0,13 -13,0 z M 169,182 l 13,0 0,13 -13,0 z M 195,182 l 13,0 0,13 -13,0 z M 221,182 l 13,0 0,13 -13,0 z M 234,182 l 13,0 0,13 -13,0 z M 338,182 l 13,0 0,13 -13,0 z M 351,182 l 13,0 0,13 -13,0 z M 0,195 l 13,0 0,13 -13,0 z M 26,195 l 13,0 0,13 -13,0 z M 39,195 l 13,0 0,13 -13,0 z M 52,195 l 13,0 0,13 -13,0 z M 91,195 l 13,0 0,13 -13,0 z M 104,195 l 13,0 0,13 -13,0 z M 117,195 l 13,0 0,13 -13,0 z M 143,195 l 13,0 0,13 -13,0 z M 182,195 l 13,0 0,13 -13,0 z M 208,195 l 13,0 0,13 -13,0 z M 299,195 l 13,0 0,13 -13,0 z M 312,195 l 13,0 0,13 -13,0 z M 364,195 l 13,0 0,13 -13,0 z M 0,208 l 13,0 0,13 -13,0 z M 13,208 l 13,0 0,13 -13,0 z M 39,208 l 13,0 0,13 -13,0 z M 52,208 l 13,0 0,13 -13,0 z M 78,208 l 13,0 0,13 -13,0 z M 91,208 l 13,0 0,13 -13,0 z M 104,208 l 13,0 0,13 -13,0 z M 117,208 l 13,0 0,13 -13,0 z M 143,208 l 13,0 0,13 -13,0 z M 169,208 l 13,0 0,13 -13,0 z M 182,208 l 13,0 0,13 -13,0 z M 195,208 l 13,0 0,13 -13,0 z M 208,208 l 13,0 0,13 -13,0 z M 221,208 l 13,0 0,13 -13,0 z M 260,208 l 13,0 0,13 -13,0 z M 299,208 l 13,0 0,13 -13,0 z M 325,208 l 13,0 0,13 -13,0 z M 338,208 l 13,0 0,13 -13,0 z M 351,208 l 13,0 0,13 -13,0 z M 0,221 l 13,0 0,13 -13,0 z M 13,221 l 13,0 0,13 -13,0 z M 39,221 l 13,0 0,13 -13,0 z M 65,221 l 13,0 0,13 -13,0 z M 91,221 l 13,0 0,13 -13,0 z M 130,221 l 13,0 0,13 -13,0 z M 156,221 l 13,0 0,13 -13,0 z M 169,221 l 13,0 0,13 -13,0 z M 182,221 l 13,0 0,13 -13,0 z M 208,221 l 13,0 0,13 -13,0 z M 247,221 l 13,0 0,13 -13,0 z M 286,221 l 13,0 0,13 -13,0 z M 312,221 l 13,0 0,13 -13,0 z M 351,221 l 13,0 0,13 -13,0 z M 364,221 l 13,0 0,13 -13,0 z M 0,234 l 13,0 0,13 -13,0 z M 26,234 l 13,0 0,13 -13,0 z M 39,234 l 13,0 0,13 -13,0 z M 65,234 l 13,0 0,13 -13,0 z M 78,234 l 13,0 0,13 -13,0 z M 91,234 l 13,0 0,13 -13,0 z M 104,234 l 13,0 0,13 -13,0 z M 117,234 l 13,0 0,13 -13,0 z M 169,234 l 13,0 0,13 -13,0 z M 195,234 l 13,0 0,13 -13,0 z M 221,234 l 13,0 0,13 -13,0 z M 260,234 l 13,0 0,13 -13,0 z M 273,234 l 13,0 0,13 -13,0 z M 299,234 l 13,0 0,13 -13,0 z M 325,234 l 13,0 0,13 -13,0 z M 338,234 l 13,0 0,13 -13,0 z M 0,247 l 13,0 0,13 -13,0 z M 52,247 l 13,0 0,13 -13,0 z M 65,247 l 13,0 0,13 -13,0 z M 91,247 l 13,0 0,13 -13,0 z M 104,247 l 13,0 0,13 -13,0 z M 117,247 l 13,0 0,13 -13,0 z M 130,247 l 13,0 0,13 -13,0 z M 156,247 l 13,0 0,13 -13,0 z M 195,247 l 13,0 0,13 -13,0 z M 234,247 l 13,0 0,13 -13,0 z M 247,247 l 13,0 0,13 -13,0 z M 260,247 l 13,0 0,13 -13,0 z M 312,247 l 13,0 0,13 -13,0 z M 325,247 l 13,0 0,13 -13,0 z M 351,247 l 13,0 0,13 -13,0 z M 364,247 l 13,0 0,13 -13,0 z M 0,260 l 13,0 0,13 -13,0 z M 26,260 l 13,0 0,13 -13,0 z M 52,260 l 13,0 0,13 -13,0 z M 78,260 l 13,0 0,13 -13,0 z M 104,260 l 13,0 0,13 -13,0 z M 117,260 l 13,0 0,13 -13,0 z M 156,260 l 13,0 0,13 -13,0 z M 169,260 l 13,0 0,13 -13,0 z M 182,260 l 13,0 0,13 -13,0 z M 195,260 l 13,0 0,13 -13,0 z M 208,260 l 13,0 0,13 -13,0 z M 221,260 l 13,0 0,13 -13,0 z M 260,260 l 13,0 0,13 -13,0 z M 273,260 l 13,0 0,13 -13,0 z M 286,260 l 13,0 0,13 -13,0 z M 299,260 l 13,0 0,13 -13,0 z M 312,260 l 13,0 0,13 -13,0 z M 325,260 l 13,0 0,13 -13,0 z M 338,260 l 13,0 0,13 -13,0 z M 351,260 l 13,0 0,13 -13,0 z M 104,273 l 13,0 0,13 -13,0 z M 117,273 l 13,0 0,13 -13,0 z M 169,273 l 13,0 0,13 -13,0 z M 182,273 l 13,0 0,13 -13,0 z M 221,273 l 13,0 0,13 -13,0 z M 260,273 l 13,0 0,13 -13,0 z M 312,273 l 13,0 0,13 -13,0 z M 325,273 l 13,0 0,13 -13,0 z M 351,273 l 13,0 0,13 -13,0 z M 364,273 l 13,0 0,13 -13,0 z M 0,286 l 13,0 0,13 -13,0 z M 13,286 l 13,0 0,13 -13,0 z M 26,286 l 13,0 0,13 -13,0 z M 39,286 l 13,0 0,13 -13,0 z M 52,286 l 13,0 0,13 -13,0 z M 65,286 l 13,0 0,13 -13,0 z M 78,286 l 13,0 0,13 -13,0 z M 104,286 l 13,0 0,13 -13,0 z M 143,286 l 13,0 0,13 -13,0 z M 156,286 l 13,0 0,13 -13,0 z M 169,286 l 13,0 0,13 -13,0 z M 195,286 l 13,0 0,13 -13,0 z M 208,286 l 13,0 0,13 -13,0 z M 234,286 l 13,0 0,13 -13,0 z M 247,286 l 13,0 0,13 -13,0 z M 260,286 l 13,0 0,13 -13,0 z M 286,286 l 13,0 0,13 -13,0 z M 312,286 l 13,0 0,13 -13,0 z M 325,286 l 13,0 0,13 -13,0 z M 0,299 l 13,0 0,13 -13,0 z M 78,299 l 13,0 0,13 -13,0 z M 130,299 l 13,0 0,13 -13,0 z M 143,299 l 13,0 0,13 -13,0 z M 195,299 l 13,0 0,13 -13,0 z M 247,299 l 13,0 0,13 -13,0 z M 260,299 l 13,0 0,13 -13,0 z M 312,299 l 13,0 0,13 -13,0 z M 325,299 l 13,0 0,13 -13,0 z M 351,299 l 13,0 0,13 -13,0 z M 364,299 l 13,0 0,13 -13,0 z M 0,312 l 13,0 0,13 -13,0 z M 26,312 l 13,0 0,13 -13,0 z M 39,312 l 13,0 0,13 -13,0 z M 52,312 l 13,0 0,13 -13,0 z M 78,312 l 13,0 0,13 -13,0 z M 104,312 l 13,0 0,13 -13,0 z M 117,312 l 13,0 0,13 -13,0 z M 143,312 l 13,0 0,13 -13,0 z M 208,312 l 13,0 0,13 -13,0 z M 221,312 l 13,0 0,13 -13,0 z M 234,312 l 13,0 0,13 -13,0 z M 260,312 l 13,0 0,13 -13,0 z M 273,312 l 13,0 0,13 -13,0 z M 286,312 l 13,0 0,13 -13,0 z M 299,312 l 13,0 0,13 -13,0 z M 312,312 l 13,0 0,13 -13,0 z M 338,312 l 13,0 0,13 -13,0 z M 351,312 l 13,0 0,13 -13,0 z M 364,312 l 13,0 0,13 -13,0 z M 0,325 l 13,0 0,13 -13,0 z M 26,325 l 13,0 0,13 -13,0 z M 39,325 l 13,0 0,13 -13,0 z M 52,325 l 13,0 0,13 -13,0 z M 78,325 l 13,0 0,13 -13,0 z M 104,325 l 13,0 0,13 -13,0 z M 117,325 l 13,0 0,13 -13,0 z M 130,325 l 13,0 0,13 -13,0 z M 156,325 l 13,0 0,13 -13,0 z M 169,325 l 13,0 0,13 -13,0 z M 247,325 l 13,0 0,13 -13,0 z M 299,325 l 13,0 0,13 -13,0 z M 325,325 l 13,0 0,13 -13,0 z M 351,325 l 13,0 0,13 -13,0 z M 364,325 l 13,0 0,13 -13,0 z M 0,338 l 13,0 0,13 -13,0 z M 26,338 l 13,0 0,13 -13,0 z M 39,338 l 13,0 0,13 -13,0 z M 52,338 l 13,0 0,13 -13,0 z M 78,338 l 13,0 0,13 -13,0 z M 104,338 l 13,0 0,13 -13,0 z M 117,338 l 13,0 0,13 -13,0 z M 130,338 l 13,0 0,13 -13,0 z M 169,338 l 13,0 0,13 -13,0 z M 182,338 l 13,0 0,13 -13,0 z M 195,338 l 13,0 0,13 -13,0 z M 208,338 l 13,0 0,13 -13,0 z M 247,338 l 13,0 0,13 -13,0 z M 286,338 l 13,0 0,13 -13,0 z M 312,338 l 13,0 0,13 -13,0 z M 325,338 l 13,0 0,13 -13,0 z M 351,338 l 13,0 0,13 -13,0 z M 0,351 l 13,0 0,13 -13,0 z M 78,351 l 13,0 0,13 -13,0 z M 104,351 l 13,0 0,13 -13,0 z M 156,351 l 13,0 0,13 -13,0 z M 169,351 l 13,0 0,13 -13,0 z M 234,351 l 13,0 0,13 -13,0 z M 260,351 l 13,0 0,13 -13,0 z M 325,351 l 13,0 0,13 -13,0 z M 351,351 l 13,0 0,13 -13,0 z M 0,364 l 13,0 0,13 -13,0 z M 13,364 l 13,0 0,13 -13,0 z M 26,364 l 13,0 0,13 -13,0 z M 39,364 l 13,0 0,13 -13,0 z M 52,364 l 13,0 0,13 -13,0 z M 65,364 l 13,0 0,13 -13,0 z M 78,364 l 13,0 0,13 -13,0 z M 104,364 l 13,0 0,13 -13,0 z M 130,364 l 13,0 0,13 -13,0 z M 156,364 l 13,0 0,13 -13,0 z M 182,364 l 13,0 0,13 -13,0 z M 195,364 l 13,0 0,13 -13,0 z M 221,364 l 13,0 0,13 -13,0 z M 247,364 l 13,0 0,13 -13,0 z M 273,364 l 13,0 0,13 -13,0 z M 286,364 l 13,0 0,13 -13,0 z M 299,364 l 13,0 0,13 -13,0 z M 312,364 l 13,0 0,13 -13,0 z M 325,364 l 13,0 0,13 -13,0 z M 338,364 l 13,0 0,13 -13,0 z " />
	</g>
</svg>
