<?xml version="1.0" standalone="no"?>
<svg xmlns="http://www.w3.org/2000/svg" version="1.1" width="370" height="370">
	<!-- Created with https://api.qrserver.com (QR Code API, see goQR.me/api for information) -->
	<title>QR Code</title>
	<desc>43DfoYgRQaVQrjc68J8re2Fc8FAiLzuf74E1LcYpVGbVD7nTmtFCDuHVPJvggFtHivPsfXE9uEHY45KzbjJaDtdkUY3bzpz</desc>
	<rect style="fill:rgb(255, 255, 255);fill-opacity:1" x="0" y="0" width="370" height="370" />
	<g id="elements">
		<path style="fill:rgb(0, 0, 0)" d="M 0,0 l 10,0 0,10 -10,0 z M 10,0 l 10,0 0,10 -10,0 z M 20,0 l 10,0 0,10 -10,0 z M 30,0 l 10,0 0,10 -10,0 z M 40,0 l 10,0 0,10 -10,0 z M 50,0 l 10,0 0,10 -10,0 z M 60,0 l 10,0 0,10 -10,0 z M 90,0 l 10,0 0,10 -10,0 z M 130,0 l 10,0 0,10 -10,0 z M 140,0 l 10,0 0,10 -10,0 z M 150,0 l 10,0 0,10 -10,0 z M 180,0 l 10,0 0,10 -10,0 z M 190,0 l 10,0 0,10 -10,0 z M 200,0 l 10,0 0,10 -10,0 z M 210,0 l 10,0 0,10 -10,0 z M 260,0 l 10,0 0,10 -10,0 z M 300,0 l 10,0 0,10 -10,0 z M 310,0 l 10,0 0,10 -10,0 z M 320,0 l 10,0 0,10 -10,0 z M 330,0 l 10,0 0,10 -10,0 z M 340,0 l 10,0 0,10 -10,0 z M 350,0 l 10,0 0,10 -10,0 z M 360,0 l 10,0 0,10 -10,0 z M 0,10 l 10,0 0,10 -10,0 z M 60,10 l 10,0 0,10 -10,0 z M 80,10 l 10,0 0,10 -10,0 z M 90,10 l 10,0 0,10 -10,0 z M 110,10 l 10,0 0,10 -10,0 z M 120,10 l 10,0 0,10 -10,0 z M 140,10 l 10,0 0,10 -10,0 z M 150,10 l 10,0 0,10 -10,0 z M 160,10 l 10,0 0,10 -10,0 z M 170,10 l 10,0 0,10 -10,0 z M 200,10 l 10,0 0,10 -10,0 z M 220,10 l 10,0 0,10 -10,0 z M 240,10 l 10,0 0,10 -10,0 z M 250,10 l 10,0 0,10 -10,0 z M 260,10 l 10,0 0,10 -10,0 z M 270,10 l 10,0 0,10 -10,0 z M 300,10 l 10,0 0,10 -10,0 z M 360,10 l 10,0 0,10 -10,0 z M 0,20 l 10,0 0,10 -10,0 z M 20,20 l 10,0 0,10 -10,0 z M 30,20 l 10,0 0,10 -10,0 z M 40,20 l 10,0 0,10 -10,0 z M 60,20 l 10,0 0,10 -10,0 z M 90,20 l 10,0 0,10 -10,0 z M 100,20 l 10,0 0,10 -10,0 z M 110,20 l 10,0 0,10 -10,0 z M 140,20 l 10,0 0,10 -10,0 z M 150,20 l 10,0 0,10 -10,0 z M 180,20 l 10,0 0,10 -10,0 z M 190,20 l 10,0 0,10 -10,0 z M 210,20 l 10,0 0,10 -10,0 z M 260,20 l 10,0 0,10 -10,0 z M 280,20 l 10,0 0,10 -10,0 z M 300,20 l 10,0 0,10 -10,0 z M 320,20 l 10,0 0,10 -10,0 z M 330,20 l 10,0 0,10 -10,0 z M 340,20 l 10,0 0,10 -10,0 z M 360,20 l 10,0 0,10 -10,0 z M 0,30 l 10,0 0,10 -10,0 z M 20,30 l 10,0 0,10 -10,0 z M 30,30 l 10,0 0,10 -10,0 z M 40,30 l 10,0 0,10 -10,0 z M 60,30 l 10,0 0,10 -10,0 z M 80,30 l 10,0 0,10 -10,0 z M 90,30 l 10,0 0,10 -10,0 z M 110,30 l 10,0 0,10 -10,0 z M 150,30 l 10,0 0,10 -10,0 z M 160,30 l 10,0 0,10 -10,0 z M 200,30 l 10,0 0,10 -10,0 z M 210,30 l 10,0 0,10 -10,0 z M 220,30 l 10,0 0,10 -10,0 z M 250,30 l 10,0 0,10 -10,0 z M 270,30 l 10,0 0,10 -10,0 z M 300,30 l 10,0 0,10 -10,0 z M 320,30 l 10,0 0,10 -10,0 z M 330,30 l 10,0 0,10 -10,0 z M 340,30 l 10,0 0,10 -10,0 z M 360,30 l 10,0 0,10 -10,0 z M 0,40 l 10,0 0,10 -10,0 z M 20,40 l 10,0 0,10 -10,0 z M 30,40 l 10,0 0,10 -10,0 z M 40,40 l 10,0 0,10 -10,0 z M 60,40 l 10,0 0,10 -10,0 z M 100,40 l 10,0 0,10 -10,0 z M 120,40 l 10,0 0,10 -10,0 z M 130,40 l 10,0 0,10 -10,0 z M 140,40 l 10,0 0,10 -10,0 z M 150,40 l 10,0 0,10 -10,0 z M 160,40 l 10,0 0,10 -10,0 z M 170,40 l 10,0 0,10 -10,0 z M 190,40 l 10,0 0,10 -10,0 z M 200,40 l 10,0 0,10 -10,0 z M 210,40 l 10,0 0,10 -10,0 z M 230,40 l 10,0 0,10 -10,0 z M 260,40 l 10,0 0,10 -10,0 z M 280,40 l 10,0 0,10 -10,0 z M 300,40 l 10,0 0,10 -10,0 z M 320,40 l 10,0 0,10 -10,0 z M 330,40 l 10,0 0,10 -10,0 z M 340,40 l 10,0 0,10 -10,0 z M 360,40 l 10,0 0,10 -10,0 z M 0,50 l 10,0 0,10 -10,0 z M 60,50 l 10,0 0,10 -10,0 z M 80,50 l 10,0 0,10 -10,0 z M 100,50 l 10,0 0,10 -10,0 z M 150,50 l 10,0 0,10 -10,0 z M 180,50 l 10,0 0,10 -10,0 z M 260,50 l 10,0 0,10 -10,0 z M 270,50 l 10,0 0,10 -10,0 z M 280,50 l 10,0 0,10 -10,0 z M 300,50 l 10,0 0,10 -10,0 z M 360,50 l 10,0 0,10 -10,0 z M 0,60 l 10,0 0,10 -10,0 z M 10,60 l 10,0 0,10 -10,0 z M 20,60 l 10,0 0,10 -10,0 z M 30,60 l 10,0 0,10 -10,0 z M 40,60 l 10,0 0,10 -10,0 z M 50,60 l 10,0 0,10 -10,0 z M 60,60 l 10,0 0,10 -10,0 z M 80,60 l 10,0 0,10 -10,0 z M 100,60 l 10,0 0,10 -10,0 z M 120,60 l 10,0 0,10 -10,0 z M 140,60 l 10,0 0,10 -10,0 z M 160,60 l 10,0 0,10 -10,0 z M 180,60 l 10,0 0,10 -10,0 z M 200,60 l 10,0 0,10 -10,0 z M 220,60 l 10,0 0,10 -10,0 z M 240,60 l 10,0 0,10 -10,0 z M 260,60 l 10,0 0,10 -10,0 z M 280,60 l 10,0 0,10 -10,0 z M 300,60 l 10,0 0,10 -10,0 z M 310,60 l 10,0 0,10 -10,0 z M 320,60 l 10,0 0,10 -10,0 z M 330,60 l 10,0 0,10 -10,0 z M 340,60 l 10,0 0,10 -10,0 z M 350,60 l 10,0 0,10 -10,0 z M 360,60 l 10,0 0,10 -10,0 z M 120,70 l 10,0 0,10 -10,0 z M 140,70 l 10,0 0,10 -10,0 z M 150,70 l 10,0 0,10 -10,0 z M 180,70 l 10,0 0,10 -10,0 z M 210,70 l 10,0 0,10 -10,0 z M 220,70 l 10,0 0,10 -10,0 z M 270,70 l 10,0 0,10 -10,0 z M 280,70 l 10,0 0,10 -10,0 z M 0,80 l 10,0 0,10 -10,0 z M 10,80 l 10,0 0,10 -10,0 z M 20,80 l 10,0 0,10 -10,0 z M 30,80 l 10,0 0,10 -10,0 z M 40,80 l 10,0 0,10 -10,0 z M 60,80 l 10,0 0,10 -10,0 z M 70,80 l 10,0 0,10 -10,0 z M 80,80 l 10,0 0,10 -10,0 z M 90,80 l 10,0 0,10 -10,0 z M 100,80 l 10,0 0,10 -10,0 z M 120,80 l 10,0 0,10 -10,0 z M 160,80 l 10,0 0,10 -10,0 z M 200,80 l 10,0 0,10 -10,0 z M 210,80 l 10,0 0,10 -10,0 z M 220,80 l 10,0 0,10 -10,0 z M 230,80 l 10,0 0,10 -10,0 z M 240,80 l 10,0 0,10 -10,0 z M 260,80 l 10,0 0,10 -10,0 z M 270,80 l 10,0 0,10 -10,0 z M 280,80 l 10,0 0,10 -10,0 z M 290,80 l 10,0 0,10 -10,0 z M 310,80 l 10,0 0,10 -10,0 z M 330,80 l 10,0 0,10 -10,0 z M 350,80 l 10,0 0,10 -10,0 z M 0,90 l 10,0 0,10 -10,0 z M 10,90 l 10,0 0,10 -10,0 z M 30,90 l 10,0 0,10 -10,0 z M 50,90 l 10,0 0,10 -10,0 z M 70,90 l 10,0 0,10 -10,0 z M 90,90 l 10,0 0,10 -10,0 z M 130,90 l 10,0 0,10 -10,0 z M 140,90 l 10,0 0,10 -10,0 z M 150,90 l 10,0 0,10 -10,0 z M 180,90 l 10,0 0,10 -10,0 z M 200,90 l 10,0 0,10 -10,0 z M 210,90 l 10,0 0,10 -10,0 z M 230,90 l 10,0 0,10 -10,0 z M 280,90 l 10,0 0,10 -10,0 z M 290,90 l 10,0 0,10 -10,0 z M 330,90 l 10,0 0,10 -10,0 z M 340,90 l 10,0 0,10 -10,0 z M 350,90 l 10,0 0,10 -10,0 z M 360,90 l 10,0 0,10 -10,0 z M 10,100 l 10,0 0,10 -10,0 z M 30,100 l 10,0 0,10 -10,0 z M 40,100 l 10,0 0,10 -10,0 z M 50,100 l 10,0 0,10 -10,0 z M 60,100 l 10,0 0,10 -10,0 z M 80,100 l 10,0 0,10 -10,0 z M 90,100 l 10,0 0,10 -10,0 z M 100,100 l 10,0 0,10 -10,0 z M 110,100 l 10,0 0,10 -10,0 z M 120,100 l 10,0 0,10 -10,0 z M 130,100 l 10,0 0,10 -10,0 z M 210,100 l 10,0 0,10 -10,0 z M 220,100 l 10,0 0,10 -10,0 z M 240,100 l 10,0 0,10 -10,0 z M 260,100 l 10,0 0,10 -10,0 z M 270,100 l 10,0 0,10 -10,0 z M 320,100 l 10,0 0,10 -10,0 z M 350,100 l 10,0 0,10 -10,0 z M 360,100 l 10,0 0,10 -10,0 z M 0,110 l 10,0 0,10 -10,0 z M 10,110 l 10,0 0,10 -10,0 z M 20,110 l 10,0 0,10 -10,0 z M 40,110 l 10,0 0,10 -10,0 z M 50,110 l 10,0 0,10 -10,0 z M 80,110 l 10,0 0,10 -10,0 z M 90,110 l 10,0 0,10 -10,0 z M 100,110 l 10,0 0,10 -10,0 z M 110,110 l 10,0 0,10 -10,0 z M 130,110 l 10,0 0,10 -10,0 z M 190,110 l 10,0 0,10 -10,0 z M 200,110 l 10,0 0,10 -10,0 z M 210,110 l 10,0 0,10 -10,0 z M 260,110 l 10,0 0,10 -10,0 z M 300,110 l 10,0 0,10 -10,0 z M 320,110 l 10,0 0,10 -10,0 z M 350,110 l 10,0 0,10 -10,0 z M 10,120 l 10,0 0,10 -10,0 z M 20,120 l 10,0 0,10 -10,0 z M 40,120 l 10,0 0,10 -10,0 z M 50,120 l 10,0 0,10 -10,0 z M 60,120 l 10,0 0,10 -10,0 z M 80,120 l 10,0 0,10 -10,0 z M 100,120 l 10,0 0,10 -10,0 z M 110,120 l 10,0 0,10 -10,0 z M 140,120 l 10,0 0,10 -10,0 z M 150,120 l 10,0 0,10 -10,0 z M 160,120 l 10,0 0,10 -10,0 z M 170,120 l 10,0 0,10 -10,0 z M 180,120 l 10,0 0,10 -10,0 z M 200,120 l 10,0 0,10 -10,0 z M 220,120 l 10,0 0,10 -10,0 z M 250,120 l 10,0 0,10 -10,0 z M 280,120 l 10,0 0,10 -10,0 z M 290,120 l 10,0 0,10 -10,0 z M 300,120 l 10,0 0,10 -10,0 z M 330,120 l 10,0 0,10 -10,0 z M 340,120 l 10,0 0,10 -10,0 z M 350,120 l 10,0 0,10 -10,0 z M 80,130 l 10,0 0,10 -10,0 z M 100,130 l 10,0 0,10 -10,0 z M 120,130 l 10,0 0,10 -10,0 z M 140,130 l 10,0 0,10 -10,0 z M 150,130 l 10,0 0,10 -10,0 z M 170,130 l 10,0 0,10 -10,0 z M 190,130 l 10,0 0,10 -10,0 z M 200,130 l 10,0 0,10 -10,0 z M 210,130 l 10,0 0,10 -10,0 z M 220,130 l 10,0 0,10 -10,0 z M 260,130 l 10,0 0,10 -10,0 z M 280,130 l 10,0 0,10 -10,0 z M 290,130 l 10,0 0,10 -10,0 z M 310,130 l 10,0 0,10 -10,0 z M 20,140 l 10,0 0,10 -10,0 z M 40,140 l 10,0 0,10 -10,0 z M 50,140 l 10,0 0,10 -10,0 z M 60,140 l 10,0 0,10 -10,0 z M 70,140 l 10,0 0,10 -10,0 z M 140,140 l 10,0 0,10 -10,0 z M 180,140 l 10,0 0,10 -10,0 z M 200,140 l 10,0 0,10 -10,0 z M 210,140 l 10,0 0,10 -10,0 z M 220,140 l 10,0 0,10 -10,0 z M 240,140 l 10,0 0,10 -10,0 z M 270,140 l 10,0 0,10 -10,0 z M 300,140 l 10,0 0,10 -10,0 z M 340,140 l 10,0 0,10 -10,0 z M 350,140 l 10,0 0,10 -10,0 z M 360,140 l 10,0 0,10 -10,0 z M 50,150 l 10,0 0,10 -10,0 z M 70,150 l 10,0 0,10 -10,0 z M 100,150 l 10,0 0,10 -10,0 z M 120,150 l 10,0 0,10 -10,0 z M 140,150 l 10,0 0,10 -10,0 z M 210,150 l 10,0 0,10 -10,0 z M 220,150 l 10,0 0,10 -10,0 z M 230,150 l 10,0 0,10 -10,0 z M 260,150 l 10,0 0,10 -10,0 z M 270,150 l 10,0 0,10 -10,0 z M 280,150 l 10,0 0,10 -10,0 z M 320,150 l 10,0 0,10 -10,0 z M 0,160 l 10,0 0,10 -10,0 z M 10,160 l 10,0 0,10 -10,0 z M 40,160 l 10,0 0,10 -10,0 z M 60,160 l 10,0 0,10 -10,0 z M 80,160 l 10,0 0,10 -10,0 z M 90,160 l 10,0 0,10 -10,0 z M 100,160 l 10,0 0,10 -10,0 z M 120,160 l 10,0 0,10 -10,0 z M 140,160 l 10,0 0,10 -10,0 z M 160,160 l 10,0 0,10 -10,0 z M 170,160 l 10,0 0,10 -10,0 z M 190,160 l 10,0 0,10 -10,0 z M 210,160 l 10,0 0,10 -10,0 z M 220,160 l 10,0 0,10 -10,0 z M 230,160 l 10,0 0,10 -10,0 z M 240,160 l 10,0 0,10 -10,0 z M 260,160 l 10,0 0,10 -10,0 z M 290,160 l 10,0 0,10 -10,0 z M 300,160 l 10,0 0,10 -10,0 z M 310,160 l 10,0 0,10 -10,0 z M 320,160 l 10,0 0,10 -10,0 z M 350,160 l 10,0 0,10 -10,0 z M 360,160 l 10,0 0,10 -10,0 z M 50,170 l 10,0 0,10 -10,0 z M 80,170 l 10,0 0,10 -10,0 z M 90,170 l 10,0 0,10 -10,0 z M 140,170 l 10,0 0,10 -10,0 z M 150,170 l 10,0 0,10 -10,0 z M 190,170 l 10,0 0,10 -10,0 z M 200,170 l 10,0 0,10 -10,0 z M 230,170 l 10,0 0,10 -10,0 z M 250,170 l 10,0 0,10 -10,0 z M 270,170 l 10,0 0,10 -10,0 z M 280,170 l 10,0 0,10 -10,0 z M 330,170 l 10,0 0,10 -10,0 z M 0,180 l 10,0 0,10 -10,0 z M 20,180 l 10,0 0,10 -10,0 z M 40,180 l 10,0 0,10 -10,0 z M 50,180 l 10,0 0,10 -10,0 z M 60,180 l 10,0 0,10 -10,0 z M 80,180 l 10,0 0,10 -10,0 z M 100,180 l 10,0 0,10 -10,0 z M 110,180 l 10,0 0,10 -10,0 z M 120,180 l 10,0 0,10 -10,0 z M 130,180 l 10,0 0,10 -10,0 z M 140,180 l 10,0 0,10 -10,0 z M 210,180 l 10,0 0,10 -10,0 z M 260,180 l 10,0 0,10 -10,0 z M 270,180 l 10,0 0,10 -10,0 z M 280,180 l 10,0 0,10 -10,0 z M 290,180 l 10,0 0,10 -10,0 z M 300,180 l 10,0 0,10 -10,0 z M 320,180 l 10,0 0,10 -10,0 z M 330,180 l 10,0 0,10 -10,0 z M 340,180 l 10,0 0,10 -10,0 z M 350,180 l 10,0 0,10 -10,0 z M 360,180 l 10,0 0,10 -10,0 z M 0,190 l 10,0 0,10 -10,0 z M 10,190 l 10,0 0,10 -10,0 z M 20,190 l 10,0 0,10 -10,0 z M 70,190 l 10,0 0,10 -10,0 z M 110,190 l 10,0 0,10 -10,0 z M 150,190 l 10,0 0,10 -10,0 z M 210,190 l 10,0 0,10 -10,0 z M 230,190 l 10,0 0,10 -10,0 z M 270,190 l 10,0 0,10 -10,0 z M 290,190 l 10,0 0,10 -10,0 z M 300,190 l 10,0 0,10 -10,0 z M 310,190 l 10,0 0,10 -10,0 z M 360,190 l 10,0 0,10 -10,0 z M 0,200 l 10,0 0,10 -10,0 z M 10,200 l 10,0 0,10 -10,0 z M 50,200 l 10,0 0,10 -10,0 z M 60,200 l 10,0 0,10 -10,0 z M 80,200 l 10,0 0,10 -10,0 z M 110,200 l 10,0 0,10 -10,0 z M 140,200 l 10,0 0,10 -10,0 z M 160,200 l 10,0 0,10 -10,0 z M 170,200 l 10,0 0,10 -10,0 z M 180,200 l 10,0 0,10 -10,0 z M 190,200 l 10,0 0,10 -10,0 z M 210,200 l 10,0 0,10 -10,0 z M 220,200 l 10,0 0,10 -10,0 z M 250,200 l 10,0 0,10 -10,0 z M 260,200 l 10,0 0,10 -10,0 z M 300,200 l 10,0 0,10 -10,0 z M 310,200 l 10,0 0,10 -10,0 z M 320,200 l 10,0 0,10 -10,0 z M 350,200 l 10,0 0,10 -10,0 z M 360,200 l 10,0 0,10 -10,0 z M 0,210 l 10,0 0,10 -10,0 z M 10,210 l 10,0 0,10 -10,0 z M 50,210 l 10,0 0,10 -10,0 z M 70,210 l 10,0 0,10 -10,0 z M 80,210 l 10,0 0,10 -10,0 z M 90,210 l 10,0 0,10 -10,0 z M 120,210 l 10,0 0,10 -10,0 z M 130,210 l 10,0 0,10 -10,0 z M 150,210 l 10,0 0,10 -10,0 z M 180,210 l 10,0 0,10 -10,0 z M 200,210 l 10,0 0,10 -10,0 z M 210,210 l 10,0 0,10 -10,0 z M 220,210 l 10,0 0,10 -10,0 z M 230,210 l 10,0 0,10 -10,0 z M 240,210 l 10,0 0,10 -10,0 z M 280,210 l 10,0 0,10 -10,0 z M 290,210 l 10,0 0,10 -10,0 z M 330,210 l 10,0 0,10 -10,0 z M 360,210 l 10,0 0,10 -10,0 z M 10,220 l 10,0 0,10 -10,0 z M 30,220 l 10,0 0,10 -10,0 z M 40,220 l 10,0 0,10 -10,0 z M 60,220 l 10,0 0,10 -10,0 z M 70,220 l 10,0 0,10 -10,0 z M 80,220 l 10,0 0,10 -10,0 z M 90,220 l 10,0 0,10 -10,0 z M 140,220 l 10,0 0,10 -10,0 z M 180,220 l 10,0 0,10 -10,0 z M 220,220 l 10,0 0,10 -10,0 z M 240,220 l 10,0 0,10 -10,0 z M 250,220 l 10,0 0,10 -10,0 z M 270,220 l 10,0 0,10 -10,0 z M 280,220 l 10,0 0,10 -10,0 z M 300,220 l 10,0 0,10 -10,0 z M 310,220 l 10,0 0,10 -10,0 z M 320,220 l 10,0 0,10 -10,0 z M 350,220 l 10,0 0,10 -10,0 z M 360,220 l 10,0 0,10 -10,0 z M 10,230 l 10,0 0,10 -10,0 z M 20,230 l 10,0 0,10 -10,0 z M 30,230 l 10,0 0,10 -10,0 z M 40,230 l 10,0 0,10 -10,0 z M 70,230 l 10,0 0,10 -10,0 z M 80,230 l 10,0 0,10 -10,0 z M 90,230 l 10,0 0,10 -10,0 z M 100,230 l 10,0 0,10 -10,0 z M 120,230 l 10,0 0,10 -10,0 z M 130,230 l 10,0 0,10 -10,0 z M 160,230 l 10,0 0,10 -10,0 z M 180,230 l 10,0 0,10 -10,0 z M 200,230 l 10,0 0,10 -10,0 z M 210,230 l 10,0 0,10 -10,0 z M 260,230 l 10,0 0,10 -10,0 z M 270,230 l 10,0 0,10 -10,0 z M 350,230 l 10,0 0,10 -10,0 z M 0,240 l 10,0 0,10 -10,0 z M 20,240 l 10,0 0,10 -10,0 z M 60,240 l 10,0 0,10 -10,0 z M 100,240 l 10,0 0,10 -10,0 z M 120,240 l 10,0 0,10 -10,0 z M 140,240 l 10,0 0,10 -10,0 z M 160,240 l 10,0 0,10 -10,0 z M 170,240 l 10,0 0,10 -10,0 z M 180,240 l 10,0 0,10 -10,0 z M 200,240 l 10,0 0,10 -10,0 z M 210,240 l 10,0 0,10 -10,0 z M 220,240 l 10,0 0,10 -10,0 z M 240,240 l 10,0 0,10 -10,0 z M 260,240 l 10,0 0,10 -10,0 z M 270,240 l 10,0 0,10 -10,0 z M 290,240 l 10,0 0,10 -10,0 z M 300,240 l 10,0 0,10 -10,0 z M 320,240 l 10,0 0,10 -10,0 z M 330,240 l 10,0 0,10 -10,0 z M 340,240 l 10,0 0,10 -10,0 z M 360,240 l 10,0 0,10 -10,0 z M 0,250 l 10,0 0,10 -10,0 z M 20,250 l 10,0 0,10 -10,0 z M 30,250 l 10,0 0,10 -10,0 z M 40,250 l 10,0 0,10 -10,0 z M 50,250 l 10,0 0,10 -10,0 z M 80,250 l 10,0 0,10 -10,0 z M 90,250 l 10,0 0,10 -10,0 z M 100,250 l 10,0 0,10 -10,0 z M 130,250 l 10,0 0,10 -10,0 z M 140,250 l 10,0 0,10 -10,0 z M 150,250 l 10,0 0,10 -10,0 z M 190,250 l 10,0 0,10 -10,0 z M 200,250 l 10,0 0,10 -10,0 z M 210,250 l 10,0 0,10 -10,0 z M 220,250 l 10,0 0,10 -10,0 z M 250,250 l 10,0 0,10 -10,0 z M 260,250 l 10,0 0,10 -10,0 z M 270,250 l 10,0 0,10 -10,0 z M 280,250 l 10,0 0,10 -10,0 z M 300,250 l 10,0 0,10 -10,0 z M 310,250 l 10,0 0,10 -10,0 z M 330,250 l 10,0 0,10 -10,0 z M 350,250 l 10,0 0,10 -10,0 z M 0,260 l 10,0 0,10 -10,0 z M 20,260 l 10,0 0,10 -10,0 z M 50,260 l 10,0 0,10 -10,0 z M 60,260 l 10,0 0,10 -10,0 z M 80,260 l 10,0 0,10 -10,0 z M 90,260 l 10,0 0,10 -10,0 z M 110,260 l 10,0 0,10 -10,0 z M 120,260 l 10,0 0,10 -10,0 z M 150,260 l 10,0 0,10 -10,0 z M 170,260 l 10,0 0,10 -10,0 z M 180,260 l 10,0 0,10 -10,0 z M 210,260 l 10,0 0,10 -10,0 z M 240,260 l 10,0 0,10 -10,0 z M 270,260 l 10,0 0,10 -10,0 z M 290,260 l 10,0 0,10 -10,0 z M 300,260 l 10,0 0,10 -10,0 z M 320,260 l 10,0 0,10 -10,0 z M 360,260 l 10,0 0,10 -10,0 z M 0,270 l 10,0 0,10 -10,0 z M 20,270 l 10,0 0,10 -10,0 z M 50,270 l 10,0 0,10 -10,0 z M 70,270 l 10,0 0,10 -10,0 z M 90,270 l 10,0 0,10 -10,0 z M 110,270 l 10,0 0,10 -10,0 z M 130,270 l 10,0 0,10 -10,0 z M 150,270 l 10,0 0,10 -10,0 z M 160,270 l 10,0 0,10 -10,0 z M 170,270 l 10,0 0,10 -10,0 z M 180,270 l 10,0 0,10 -10,0 z M 190,270 l 10,0 0,10 -10,0 z M 200,270 l 10,0 0,10 -10,0 z M 210,270 l 10,0 0,10 -10,0 z M 230,270 l 10,0 0,10 -10,0 z M 260,270 l 10,0 0,10 -10,0 z M 280,270 l 10,0 0,10 -10,0 z M 320,270 l 10,0 0,10 -10,0 z M 360,270 l 10,0 0,10 -10,0 z M 0,280 l 10,0 0,10 -10,0 z M 30,280 l 10,0 0,10 -10,0 z M 40,280 l 10,0 0,10 -10,0 z M 60,280 l 10,0 0,10 -10,0 z M 80,280 l 10,0 0,10 -10,0 z M 90,280 l 10,0 0,10 -10,0 z M 100,280 l 10,0 0,10 -10,0 z M 110,280 l 10,0 0,10 -10,0 z M 120,280 l 10,0 0,10 -10,0 z M 150,280 l 10,0 0,10 -10,0 z M 180,280 l 10,0 0,10 -10,0 z M 210,280 l 10,0 0,10 -10,0 z M 220,280 l 10,0 0,10 -10,0 z M 250,280 l 10,0 0,10 -10,0 z M 260,280 l 10,0 0,10 -10,0 z M 270,280 l 10,0 0,10 -10,0 z M 280,280 l 10,0 0,10 -10,0 z M 290,280 l 10,0 0,10 -10,0 z M 300,280 l 10,0 0,10 -10,0 z M 310,280 l 10,0 0,10 -10,0 z M 320,280 l 10,0 0,10 -10,0 z M 350,280 l 10,0 0,10 -10,0 z M 360,280 l 10,0 0,10 -10,0 z M 80,290 l 10,0 0,10 -10,0 z M 100,290 l 10,0 0,10 -10,0 z M 120,290 l 10,0 0,10 -10,0 z M 130,290 l 10,0 0,10 -10,0 z M 140,290 l 10,0 0,10 -10,0 z M 150,290 l 10,0 0,10 -10,0 z M 180,290 l 10,0 0,10 -10,0 z M 200,290 l 10,0 0,10 -10,0 z M 260,290 l 10,0 0,10 -10,0 z M 270,290 l 10,0 0,10 -10,0 z M 280,290 l 10,0 0,10 -10,0 z M 320,290 l 10,0 0,10 -10,0 z M 350,290 l 10,0 0,10 -10,0 z M 0,300 l 10,0 0,10 -10,0 z M 10,300 l 10,0 0,10 -10,0 z M 20,300 l 10,0 0,10 -10,0 z M 30,300 l 10,0 0,10 -10,0 z M 40,300 l 10,0 0,10 -10,0 z M 50,300 l 10,0 0,10 -10,0 z M 60,300 l 10,0 0,10 -10,0 z M 80,300 l 10,0 0,10 -10,0 z M 100,300 l 10,0 0,10 -10,0 z M 120,300 l 10,0 0,10 -10,0 z M 130,300 l 10,0 0,10 -10,0 z M 140,300 l 10,0 0,10 -10,0 z M 150,300 l 10,0 0,10 -10,0 z M 160,300 l 10,0 0,10 -10,0 z M 170,300 l 10,0 0,10 -10,0 z M 200,300 l 10,0 0,10 -10,0 z M 240,300 l 10,0 0,10 -10,0 z M 270,300 l 10,0 0,10 -10,0 z M 280,300 l 10,0 0,10 -10,0 z M 300,300 l 10,0 0,10 -10,0 z M 320,300 l 10,0 0,10 -10,0 z M 330,300 l 10,0 0,10 -10,0 z M 340,300 l 10,0 0,10 -10,0 z M 360,300 l 10,0 0,10 -10,0 z M 0,310 l 10,0 0,10 -10,0 z M 60,310 l 10,0 0,10 -10,0 z M 120,310 l 10,0 0,10 -10,0 z M 130,310 l 10,0 0,10 -10,0 z M 150,310 l 10,0 0,10 -10,0 z M 160,310 l 10,0 0,10 -10,0 z M 170,310 l 10,0 0,10 -10,0 z M 190,310 l 10,0 0,10 -10,0 z M 200,310 l 10,0 0,10 -10,0 z M 210,310 l 10,0 0,10 -10,0 z M 230,310 l 10,0 0,10 -10,0 z M 240,310 l 10,0 0,10 -10,0 z M 280,310 l 10,0 0,10 -10,0 z M 320,310 l 10,0 0,10 -10,0 z M 350,310 l 10,0 0,10 -10,0 z M 360,310 l 10,0 0,10 -10,0 z M 0,320 l 10,0 0,10 -10,0 z M 20,320 l 10,0 0,10 -10,0 z M 30,320 l 10,0 0,10 -10,0 z M 40,320 l 10,0 0,10 -10,0 z M 60,320 l 10,0 0,10 -10,0 z M 80,320 l 10,0 0,10 -10,0 z M 90,320 l 10,0 0,10 -10,0 z M 120,320 l 10,0 0,10 -10,0 z M 150,320 l 10,0 0,10 -10,0 z M 160,320 l 10,0 0,10 -10,0 z M 170,320 l 10,0 0,10 -10,0 z M 180,320 l 10,0 0,10 -10,0 z M 220,320 l 10,0 0,10 -10,0 z M 240,320 l 10,0 0,10 -10,0 z M 260,320 l 10,0 0,10 -10,0 z M 270,320 l 10,0 0,10 -10,0 z M 280,320 l 10,0 0,10 -10,0 z M 290,320 l 10,0 0,10 -10,0 z M 300,320 l 10,0 0,10 -10,0 z M 310,320 l 10,0 0,10 -10,0 z M 320,320 l 10,0 0,10 -10,0 z M 0,330 l 10,0 0,10 -10,0 z M 20,330 l 10,0 0,10 -10,0 z M 30,330 l 10,0 0,10 -10,0 z M 40,330 l 10,0 0,10 -10,0 z M 60,330 l 10,0 0,10 -10,0 z M 80,330 l 10,0 0,10 -10,0 z M 90,330 l 10,0 0,10 -10,0 z M 120,330 l 10,0 0,10 -10,0 z M 130,330 l 10,0 0,10 -10,0 z M 140,330 l 10,0 0,10 -10,0 z M 150,330 l 10,0 0,10 -10,0 z M 160,330 l 10,0 0,10 -10,0 z M 170,330 l 10,0 0,10 -10,0 z M 190,330 l 10,0 0,10 -10,0 z M 200,330 l 10,0 0,10 -10,0 z M 210,330 l 10,0 0,10 -10,0 z M 220,330 l 10,0 0,10 -10,0 z M 230,330 l 10,0 0,10 -10,0 z M 260,330 l 10,0 0,10 -10,0 z M 270,330 l 10,0 0,10 -10,0 z M 290,330 l 10,0 0,10 -10,0 z M 300,330 l 10,0 0,10 -10,0 z M 320,330 l 10,0 0,10 -10,0 z M 330,330 l 10,0 0,10 -10,0 z M 360,330 l 10,0 0,10 -10,0 z M 0,340 l 10,0 0,10 -10,0 z M 20,340 l 10,0 0,10 -10,0 z M 30,340 l 10,0 0,10 -10,0 z M 40,340 l 10,0 0,10 -10,0 z M 60,340 l 10,0 0,10 -10,0 z M 80,340 l 10,0 0,10 -10,0 z M 110,340 l 10,0 0,10 -10,0 z M 120,340 l 10,0 0,10 -10,0 z M 140,340 l 10,0 0,10 -10,0 z M 160,340 l 10,0 0,10 -10,0 z M 170,340 l 10,0 0,10 -10,0 z M 200,340 l 10,0 0,10 -10,0 z M 220,340 l 10,0 0,10 -10,0 z M 250,340 l 10,0 0,10 -10,0 z M 260,340 l 10,0 0,10 -10,0 z M 270,340 l 10,0 0,10 -10,0 z M 280,340 l 10,0 0,10 -10,0 z M 310,340 l 10,0 0,10 -10,0 z M 350,340 l 10,0 0,10 -10,0 z M 360,340 l 10,0 0,10 -10,0 z M 0,350 l 10,0 0,10 -10,0 z M 60,350 l 10,0 0,10 -10,0 z M 80,350 l 10,0 0,10 -10,0 z M 90,350 l 10,0 0,10 -10,0 z M 100,350 l 10,0 0,10 -10,0 z M 110,350 l 10,0 0,10 -10,0 z M 170,350 l 10,0 0,10 -10,0 z M 190,350 l 10,0 0,10 -10,0 z M 200,350 l 10,0 0,10 -10,0 z M 210,350 l 10,0 0,10 -10,0 z M 230,350 l 10,0 0,10 -10,0 z M 280,350 l 10,0 0,10 -10,0 z M 300,350 l 10,0 0,10 -10,0 z M 320,350 l 10,0 0,10 -10,0 z M 360,350 l 10,0 0,10 -10,0 z M 0,360 l 10,0 0,10 -10,0 z M 10,360 l 10,0 0,10 -10,0 z M 20,360 l 10,0 0,10 -10,0 z M 30,360 l 10,0 0,10 -10,0 z M 40,360 l 10,0 0,10 -10,0 z M 50,360 l 10,0 0,10 -10,0 z M 60,360 l 10,0 0,10 -10,0 z M 80,360 l 10,0 0,10 -10,0 z M 110,360 l 10,0 0,10 -10,0 z M 150,360 l 10,0 0,10 -10,0 z M 220,360 l 10,0 0,10 -10,0 z M 240,360 l 10,0 0,10 -10,0 z M 260,360 l 10,0 0,10 -10,0 z M 270,360 l 10,0 0,10 -10,0 z M 290,360 l 10,0 0,10 -10,0 z M 340,360 l 10,0 0,10 -10,0 z M 350,360 l 10,0 0,10 -10,0 z M 360,360 l 10,0 0,10 -10,0 z " />
	</g>
</svg>
