<svg width="187" height="187" viewBox="0 0 187 187" fill="none" xmlns="http://www.w3.org/2000/svg">
<circle cx="93.5" cy="93.5" r="93.5" fill="#FFE91C"/>
<path d="M85.523 142.5C78.223 141.9 72.273 140.8 67.673 139.2C63.173 137.5 59.823 136.1 57.623 135L64.073 117.75C67.573 119.45 71.723 121 76.523 122.4C81.423 123.8 86.573 124.5 91.973 124.5C98.073 124.5 102.223 123.7 104.423 122.1C106.723 120.4 107.873 118.05 107.873 115.05C107.873 113.15 107.423 111.55 106.523 110.25C105.623 108.85 104.323 107.6 102.623 106.5C100.923 105.4 98.7731 104.35 96.1731 103.35C93.573 102.25 90.573 101.1 87.173 99.9C83.873 98.7 80.623 97.4 77.423 96C74.323 94.5 71.473 92.7 68.873 90.6C66.373 88.5 64.323 85.95 62.723 82.95C61.223 79.85 60.473 76.15 60.473 71.85C60.473 68.55 60.923 65.4 61.823 62.4C62.823 59.3 64.323 56.5 66.323 54C68.323 51.5 70.923 49.4 74.123 47.7C77.323 45.9 81.123 44.6 85.523 43.8V27.6H104.423V43.2C109.623 43.7 114.073 44.45 117.773 45.45C121.573 46.45 124.573 47.45 126.773 48.45L122.123 66.45C118.823 65.05 114.973 63.85 110.573 62.85C106.273 61.85 101.723 61.35 96.923 61.35C92.123 61.35 88.673 62.15 86.573 63.75C84.473 65.35 83.423 67.45 83.423 70.05C83.423 71.65 83.723 73.05 84.323 74.25C85.023 75.35 86.073 76.35 87.473 77.25C88.873 78.15 90.573 79.05 92.573 79.95C94.673 80.75 97.173 81.65 100.073 82.65C104.473 84.25 108.523 86 112.223 87.9C116.023 89.8 119.273 92 121.973 94.5C124.773 96.9 126.923 99.75 128.423 103.05C130.023 106.35 130.823 110.2 130.823 114.6C130.823 117.6 130.373 120.6 129.473 123.6C128.573 126.5 127.073 129.2 124.973 131.7C122.873 134.2 120.123 136.35 116.723 138.15C113.423 139.95 109.323 141.25 104.423 142.05V160.35H85.523V142.5Z" fill="black"/>
</svg>
